PathFileType	4	(X/Y/Z)	 s06c0403.trc
DataRate	CameraRate	NumFrames	NumMarkers	Units	OrigDataRate	OrigDataStartFrame	OrigNumFrames
200	200	4	48	mm	200	501	2000
Frame#	Time	racr			lacr			c7			jug			rlel			rdr			llel			ldr			s2			lic			ric			lasi			rasi			rpsi			lpsi			rgt			lgt			rth1			rth2			rth3			rth4			rlfc			rmfc			rsh1			rsh2			rsh3			rsh4			rlmal			rcal			rtoe			rmt5			lth1			lth2			lth4			lth3			llfc			lmfc			llmal			lcal			lmt5			lsh1			lsh2			lsh3			lsh4			ltoe			SBIKE			LBIKE			RBIKE			
		X1	Y1	Z1	X2	Y2	Z2	X3	Y3	Z3	X4	Y4	Z4	X5	Y5	Z5	X6	Y6	Z6	X7	Y7	Z7	X8	Y8	Z8	X9	Y9	Z9	X10	Y10	Z10	X11	Y11	Z11	X12	Y12	Z12	X13	Y13	Z13	X14	Y14	Z14	X15	Y15	Z15	X16	Y16	Z16	X17	Y17	Z17	X18	Y18	Z18	X19	Y19	Z19	X20	Y20	Z20	X21	Y21	Z21	X22	Y22	Z22	X23	Y23	Z23	X24	Y24	Z24	X25	Y25	Z25	X26	Y26	Z26	X27	Y27	Z27	X28	Y28	Z28	X29	Y29	Z29	X30	Y30	Z30	X31	Y31	Z31	X32	Y32	Z32	X33	Y33	Z33	X34	Y34	Z34	X35	Y35	Z35	X36	Y36	Z36	X37	Y37	Z37	X38	Y38	Z38	X39	Y39	Z39	X40	Y40	Z40	X41	Y41	Z41	X42	Y42	Z42	X43	Y43	Z43	X44	Y44	Z44	X45	Y45	Z45	X46	Y46	Z46	X47	Y47	Z47	X48	Y48	Z48	
501	2.5050	689.912101	1185.535973	19.526446	727.781479	1177.254678	-312.597660	739.617708	1287.766234	-135.482809	706.760453	1123.330862	-143.481966	504.126023	1017.615801	109.934155	649.942588	939.114305	-25.783822	525.642733	1077.830096	-478.309424	662.768828	933.069646	-408.918302	178.206632	1233.164191	-244.812241	347.070029	1126.926479	-375.442897	273.720531	1186.541497	-58.550601	329.490420	1072.715070	-334.516670	293.127551	1133.843227	-89.883897	214.366617	1264.767692	-212.920831	225.420664	1252.316575	-269.929492	240.044949	1131.396630	-21.440825	291.856379	1074.889384	-405.713376	307.299234	1012.627690	-1.550447	367.424167	947.567428	0.136090	388.750661	860.800889	-7.668555	399.215712	963.126276	-18.944629	416.336609	754.386597	-26.926048	411.935653	733.492980	-136.668779	370.157085	635.706457	-12.234193	359.209229	552.207441	-36.509236	308.278401	482.328792	-47.497115	383.264046	549.704750	-70.261600	267.357146	409.608486	-60.008034	205.048348	380.131412	-114.039487	480.034939	353.451252	-87.680686	376.670916	336.753922	-27.520243	309.889464	961.061683	-407.418752	359.477015	890.087022	-398.017711	391.660187	902.498672	-384.753987	367.438883	801.039572	-392.854261	363.940367	681.100789	-371.039453	349.328589	672.449394	-253.548935	73.013253	445.602325	-369.426312	11.114311	482.778052	-323.178690	81.895539	297.881960	-393.250136	289.760770	601.012646	-395.862502	236.620196	535.280442	-375.082636	155.788909	497.880793	-377.145743	253.218941	520.738159	-342.266508	133.721731	228.025312	-335.146809	-204.392313	867.112373	-201.294342	-52.273421	84.380880	-410.079058	-51.229915	80.620476	-12.238272	
502	2.5100	688.627589	1184.723885	19.398022	727.297384	1176.499392	-312.621802	738.927910	1287.483562	-135.746552	706.201383	1123.025282	-144.060630	503.074506	1016.432671	109.343839	649.661670	938.784558	-25.858842	525.193480	1077.149615	-478.292589	662.793878	932.808796	-409.138154	178.087897	1231.596960	-245.624578	346.845160	1126.103289	-376.192548	273.292382	1184.026656	-59.111896	329.278090	1071.707844	-335.273290	292.767594	1131.462871	-90.636430	213.761332	1262.806950	-213.149635	224.864502	1250.815740	-270.247290	239.254339	1128.400098	-22.227853	292.233277	1074.571274	-406.611015	304.955665	1008.834729	-2.322128	364.482655	942.728218	0.142225	384.621648	855.917086	-7.843499	395.994234	958.635385	-17.087782	412.368942	749.745436	-26.562125	408.791818	729.490394	-137.216086	366.958664	630.938725	-12.021905	357.283889	547.253223	-36.230260	307.406814	476.678434	-47.531654	380.260436	545.084315	-69.981006	268.063624	403.077442	-60.236606	205.829833	373.971295	-114.239095	480.595670	345.602421	-87.884251	377.120137	329.562493	-27.699026	311.033304	961.427069	-408.612534	361.522466	891.175451	-398.765480	393.296989	903.925385	-384.942084	370.755326	802.289033	-394.470560	368.488858	681.481280	-372.040949	352.921991	672.499364	-255.287613	73.959647	452.117585	-369.467775	12.355935	490.072804	-323.297752	81.821253	304.730020	-393.304346	292.655563	602.378292	-396.508176	238.312858	537.735413	-375.263495	156.744703	502.011844	-377.034481	254.547194	523.181029	-342.333844	133.087959	234.507982	-335.139196	-204.420096	867.069577	-201.450328	-52.278481	84.332040	-410.097838	-51.018660	80.593841	-12.514658	
503	2.5150	687.361901	1183.922514	19.040054	726.726399	1175.903951	-312.559827	738.258555	1287.312195	-136.082595	705.623641	1122.847641	-144.868089	502.115069	1015.255879	108.761863	649.496310	938.444303	-25.897325	524.842336	1076.506931	-478.324831	662.915689	932.562404	-409.362291	177.518314	1229.397586	-245.867684	346.679080	1125.204675	-377.000891	272.776306	1181.200038	-59.614673	329.087989	1070.607529	-335.924199	292.114131	1128.686819	-91.315827	213.146351	1260.687788	-213.410644	224.175509	1249.141805	-270.628112	238.247362	1125.319618	-22.980136	292.640080	1074.075025	-407.403829	302.858871	1004.661359	-2.906265	361.444726	937.918618	0.121061	380.583568	851.084813	-8.038181	393.347423	953.625993	-16.172909	408.295651	745.156171	-26.350066	406.164938	725.451905	-137.347613	363.798032	626.152418	-11.701742	355.338314	542.212207	-35.745652	306.399690	471.087632	-47.472920	378.772395	540.238529	-69.155529	268.583905	396.596651	-60.309574	206.362769	368.026191	-114.315100	480.915011	337.817456	-88.018165	377.305881	322.356599	-27.939280	312.243897	961.505301	-409.564912	363.765727	892.035779	-399.534631	395.078463	905.209732	-384.970164	374.429516	803.189447	-396.049996	373.436192	682.017818	-373.157509	358.662026	671.996191	-257.107197	75.460421	458.713760	-369.618871	14.261301	497.542537	-323.516601	82.138985	311.502907	-393.459768	296.110322	603.867888	-397.175952	240.577462	540.533831	-375.650497	158.310928	506.260913	-377.089410	256.433478	525.473366	-342.119452	132.790702	240.862000	-335.096386	-204.450152	867.058927	-201.585017	-52.276719	84.298594	-410.113071	-50.979390	80.303015	-12.727588	
504	2.5200	686.070756	1183.735130	19.096463	726.153620	1175.185209	-312.543905	737.390332	1287.298574	-136.404258	705.023185	1122.762811	-145.084023	501.249639	1014.020415	108.039986	649.729132	938.531304	-25.844428	524.478163	1075.857528	-478.380448	663.211449	932.103761	-409.172529	177.150130	1227.256945	-246.555220	346.465760	1124.295089	-377.752785	272.258546	1178.469359	-60.118169	329.008223	1069.442987	-336.689229	291.967879	1126.202438	-92.005312	212.431098	1258.311374	-213.584639	223.528577	1247.331640	-271.063248	237.133750	1121.874058	-24.149018	292.977719	1073.355043	-407.998396	300.833342	1000.574639	-3.197604	358.229215	933.037091	-0.244188	376.709427	846.179789	-8.312391	390.780661	948.766941	-15.245112	404.252385	740.444390	-26.088011	405.767773	721.188715	-136.311388	360.589893	621.265066	-11.374529	353.259691	537.149835	-35.246854	305.247921	465.463417	-47.150609	377.140756	535.296918	-68.307606	268.889408	390.192787	-60.295683	206.675038	362.356028	-114.255066	481.151071	330.026679	-87.969015	377.287335	315.137797	-28.003549	313.689955	961.217361	-410.432284	366.279347	892.613183	-400.293768	397.099280	906.156800	-384.976148	378.520806	803.957241	-397.666876	378.913435	682.768385	-374.285574	364.459447	671.603383	-259.061789	77.378961	465.288547	-369.864011	16.507100	504.752104	-323.672224	82.726913	318.191400	-393.504225	300.346886	605.856539	-397.994375	243.631845	543.607548	-376.046699	160.785226	510.887783	-377.348364	259.086239	528.808864	-342.341504	132.753591	247.194570	-335.054532	-204.475773	867.057197	-201.674650	-52.281879	84.288257	-410.129952	-51.041943	80.560121	-12.519211	
